<svg width="5.500000" height="11.500000" viewBox="0 0 5.5 11.5" fill="none" xmlns="http://www.w3.org/2000/svg" xmlns:xlink="http://www.w3.org/1999/xlink">
	<desc>
			Created with Pixso.
	</desc>
	<defs/>
	<path id="Vector" d="M5.27795 1.28271C5.57214 0.991089 5.57422 0.516235 5.28271 0.222046C4.99109 -0.0721436 4.51624 -0.0742798 4.22205 0.217285L2.42737 1.99609C1.75134 2.66602 1.19885 3.21356 0.807007 3.70148C0.399658 4.2088 0.104736 4.72375 0.0258789 5.34186C-0.00866699 5.61285 -0.00866699 5.88715 0.0258789 6.15814C0.104736 6.77631 0.399658 7.2912 0.807007 7.79852C1.19885 8.28644 1.75134 8.83392 2.42725 9.50391L4.22205 11.2827C4.51624 11.5743 4.99109 11.5721 5.28271 11.278C5.57422 10.9838 5.57214 10.5089 5.27795 10.2173L3.51501 8.46997C2.79944 7.76086 2.30872 7.27283 1.97656 6.85931C1.65405 6.45758 1.54333 6.19958 1.51392 5.96851C1.49536 5.82343 1.49536 5.67657 1.51392 5.53149C1.54333 5.30042 1.65405 5.04242 1.97656 4.64069C2.30872 4.22717 2.79944 3.73914 3.51501 3.03003L5.27795 1.28271Z" fill-rule="nonzero" fill="#414141"/>
</svg>
