<?xml version="1.0" encoding="UTF-8" standalone="no"?>
<!DOCTYPE svg PUBLIC "-//W3C//DTD SVG 1.1//EN" "http://www.w3.org/Graphics/SVG/1.1/DTD/svg11.dtd">
<svg xmlns="http://www.w3.org/2000/svg" version="1.1" viewBox="0.00 0.00 750.00 750.00">
<path fill="#ffffff" d="
  M 376.24 407.57
  L 311.20 495.12
  A 0.31 0.31 0.0 0 1 310.95 495.25
  L 262.64 495.25
  A 0.31 0.31 0.0 0 1 262.40 494.75
  L 352.74 375.64
  A 0.31 0.31 0.0 0 0 352.74 375.26
  L 237.79 220.49
  A 0.31 0.31 0.0 0 1 238.04 220.00
  L 282.53 220.00
  A 0.31 0.31 0.0 0 1 282.77 220.12
  L 376.49 343.67
  A 0.31 0.31 0.0 0 0 376.99 343.67
  L 446.62 251.87
  A 0.31 0.31 0.0 0 1 446.86 251.75
  L 491.36 251.75
  A 0.31 0.31 0.0 0 1 491.61 252.24
  L 400.48 374.93
  A 0.31 0.31 0.0 0 0 400.48 375.31
  L 467.00 463.00
  A 0.31 0.31 0.0 0 1 466.76 463.50
  L 418.44 463.50
  A 0.31 0.31 0.0 0 1 418.19 463.37
  L 376.74 407.58
  A 0.31 0.31 0.0 0 0 376.24 407.57
  Z"
/>
<path fill="#ffffff" d="
  M 53.98 457.31
  L 239.24 457.22
  Q 239.75 457.22 239.75 457.74
  L 239.75 494.75
  A 0.25 0.25 0.0 0 1 239.50 495.00
  L 15.75 495.00
  A 0.69 0.69 0.0 0 1 15.06 494.32
  C 14.70 471.20 15.33 447.92 15.50 424.75
  Q 15.59 411.26 16.99 404.85
  C 22.40 380.02 42.54 360.79 67.09 355.84
  Q 73.75 354.51 87.01 354.50
  Q 138.63 354.50 190.26 354.50
  Q 199.02 354.50 203.06 353.06
  C 210.78 350.31 217.09 343.71 219.45 335.79
  Q 220.44 332.46 220.50 325.59
  C 220.53 320.67 220.88 314.88 219.88 310.53
  C 217.83 301.63 210.81 293.99 202.02 291.30
  Q 198.60 290.25 191.37 290.25
  Q 122.90 290.25 54.51 290.25
  A 0.26 0.26 0.0 0 1 54.25 289.99
  L 54.25 252.26
  Q 54.25 251.76 54.75 251.76
  Q 125.27 251.74 195.75 251.75
  C 219.48 251.75 240.39 266.58 251.50 286.75
  C 259.71 301.68 259.41 316.39 258.98 331.00
  C 258.13 360.27 234.42 387.07 205.54 391.94
  Q 200.69 392.75 190.92 392.75
  Q 135.71 392.74 80.50 392.72
  C 68.94 392.71 58.71 400.01 55.13 410.80
  Q 53.70 415.10 53.76 426.32
  Q 53.83 441.63 53.60 456.92
  Q 53.59 457.31 53.98 457.31
  Z"
/>
<path fill="#ffffff" d="
  M 596.96 529.01
  C 571.25 524.21 550.55 502.49 545.78 476.86
  Q 544.75 471.36 544.75 457.06
  Q 544.74 374.29 544.76 291.51
  Q 544.76 291.00 545.27 291.00
  L 582.73 291.00
  Q 583.25 291.00 583.25 291.51
  Q 583.25 376.79 583.26 462.05
  C 583.26 475.93 587.42 480.43 596.56 489.68
  C 600.34 493.51 604.77 494.49 610.52 494.49
  Q 672.39 494.51 734.21 494.50
  A 0.55 0.54 0.0 0 1 734.76 495.04
  L 735.08 529.19
  A 0.80 0.80 0.0 0 1 734.28 530.00
  Q 673.56 530.00 612.61 530.00
  Q 602.22 530.00 596.96 529.01
  Z"
/>
<path fill="#ffffff" d="
  M 489.46 325.54
  L 440.22 393.55
  A 0.34 0.34 0.0 0 1 439.67 393.55
  L 425.54 374.88
  A 0.34 0.34 0.0 0 1 425.54 374.46
  L 463.26 325.13
  A 0.34 0.34 0.0 0 1 463.53 325.00
  L 489.18 325.00
  A 0.34 0.34 0.0 0 1 489.46 325.54
  Z"
/>
<path fill="#ffffff" d="
  M 509.91 354.02
  L 461.24 421.27
  A 0.33 0.33 0.0 0 1 460.71 421.28
  L 446.55 402.63
  A 0.33 0.33 0.0 0 1 446.55 402.23
  L 483.70 353.63
  A 0.33 0.33 0.0 0 1 483.96 353.50
  L 509.64 353.50
  A 0.33 0.33 0.0 0 1 509.91 354.02
  Z"
/>
<path fill="#ffffff" d="
  M 531.20 380.81
  L 482.06 448.69
  A 0.35 0.35 0.0 0 1 481.49 448.70
  L 467.32 430.10
  A 0.35 0.35 0.0 0 1 467.32 429.68
  L 504.99 380.39
  A 0.35 0.35 0.0 0 1 505.27 380.25
  L 530.91 380.25
  A 0.35 0.35 0.0 0 1 531.20 380.81
  Z"
/>
</svg>
